<svg width="142" height="78" viewBox="0 0 142 78" fill="none" xmlns="http://www.w3.org/2000/svg">
<g clip-path="url(#clip0_33_86)">
<path d="M88.1725 27.786C87.3674 28.8949 86.6645 29.8294 86.6006 29.8544C86.5495 29.8917 86.3706 29.7547 86.2044 29.5678C86.0255 29.3684 85.591 29.0445 85.2076 28.8451C84.6453 28.5461 84.3386 28.4713 83.4313 28.4339L82.3322 28.3841L82.2555 29.4183C82.1405 30.7515 82.1405 31.7857 82.2428 32.7451L82.3322 33.5052L83.0223 33.6422L83.7124 33.7917L83.2396 34.4272C82.9712 34.7886 82.4217 35.5362 81.9999 36.0844L81.246 37.1061L80.4281 36.7448C78.1405 35.7355 75.5463 35.7854 73.2715 36.8818C72.1725 37.4052 70.8562 38.4394 71.0095 38.6512C71.0479 38.7384 71.0223 38.7509 70.9456 38.701C70.7923 38.6138 69.9488 39.648 69.5399 40.433C68.9776 41.517 68.6964 42.7505 68.6964 44.0464C68.6836 45.554 68.8626 46.339 69.5271 47.6972C70.1022 48.8684 71.2651 50.1643 72.4025 50.8994C74.1533 52.0333 76.6709 52.4818 78.7667 52.0333C81.821 51.3604 84.3386 48.9806 85.0287 46.1023C85.2843 45.0681 85.2843 43.1493 85.0415 42.1275C84.7603 41.0061 83.9297 39.5234 83.0479 38.5764C82.6389 38.1403 82.2939 37.754 82.2939 37.7167C82.2939 37.6917 83.9936 35.6234 86.0766 33.1314C88.9392 29.6924 89.9233 28.5834 90.1661 28.5585C90.5878 28.4962 91.738 29.032 92.3514 29.5802C92.6325 29.817 92.9137 29.979 92.9648 29.9291C93.0287 29.8793 93.0287 29.9042 92.9776 29.9914C92.8626 30.1908 94.1405 31.1253 94.6773 31.225C95.0606 31.2997 95.0862 31.2873 95.0479 31.0381C95.0223 30.8263 94.8306 30.7017 94.3067 30.5148C93.9233 30.3777 93.5399 30.2531 93.4504 30.2531C93.361 30.2406 93.3226 30.1908 93.3482 30.1409C93.4504 29.9914 91.9041 28.7579 91.738 28.8576C91.6485 28.9074 91.6229 28.8949 91.6741 28.8077C91.7124 28.7454 91.5974 28.571 91.4057 28.4339C91.0606 28.1847 91.0606 28.1847 91.2907 27.9231C91.4313 27.7735 91.5718 27.6614 91.6357 27.6614C91.7124 27.6614 96.0958 29.6052 97.5782 30.3029L98.23 30.6144L98.575 29.9416L98.9073 29.2687L97.7955 28.7703C94.4217 27.2502 91.0351 25.9544 90.1789 25.8422L89.6421 25.7799L88.1725 27.786ZM78.69 39.1994C79.0479 39.3116 79.3546 39.4611 79.3546 39.5234C79.3546 39.5981 78.9201 40.2336 78.3833 40.9438C77.4249 42.2272 77.4121 42.2397 76.8881 42.2397C75.8402 42.2397 75.0095 43.062 75.0095 44.1087C75.0095 44.7317 75.4313 45.554 75.6741 45.4045C75.7635 45.3547 75.7763 45.3671 75.7252 45.4544C75.6102 45.6537 76.1213 45.9528 76.7348 46.04C77.3482 46.1272 78.23 45.7409 78.6389 45.1927C79.0479 44.6445 79.0095 43.5355 78.575 42.9748L78.23 42.5512L79.214 41.3425C79.7507 40.6822 80.2491 40.1339 80.3386 40.1215C80.5814 40.1215 81.3865 41.1183 81.821 41.9905C82.2044 42.7381 82.23 42.8876 82.23 44.1087C82.23 45.3173 82.2044 45.4793 81.821 46.2643C80.492 49.0055 77.2587 50.0895 74.5111 48.7189C73.6293 48.2828 72.6709 47.3234 72.1852 46.3889C71.7635 45.579 71.7507 45.5042 71.7507 44.1211C71.7507 42.8004 71.7763 42.6135 72.1086 41.978C72.3003 41.5917 72.6837 41.0186 72.9648 40.7195C73.246 40.408 73.4249 40.109 73.3737 40.0592C73.3226 39.9969 73.3482 39.9969 73.4249 40.0342C73.5015 40.0716 73.8083 39.947 74.1277 39.7352C74.6645 39.3988 75.4568 39.0873 76.1597 38.9502C76.7092 38.8505 77.9744 38.9751 78.69 39.1994Z" fill="white"/>
<path d="M89.8721 31.7607C88.6197 32.0971 88.0319 32.4086 87.4312 33.0815C86.7923 33.7917 86.46 34.7013 86.4728 35.7106C86.4983 37.5671 87.968 39.0997 90.2811 39.6853C91.0478 39.8722 94.3066 39.9594 94.4728 39.785C94.5239 39.7476 94.46 39.6479 94.345 39.5607C94.2172 39.4735 94.1661 39.324 94.2172 39.1994C94.4855 38.539 96.722 38.4268 97.9871 39.0249C98.7411 39.3738 98.805 39.2617 98.1277 38.7259C97.1948 37.9907 96.4153 37.8288 93.7316 37.8288C91.6868 37.8163 91.1884 37.7789 90.5367 37.5671C88.7475 36.9939 87.6996 35.0626 88.9009 34.5268C89.6804 34.178 90.6772 34.5518 91.5079 35.5112C92.2875 36.4083 92.837 36.67 94.1788 36.7323C95.0478 36.7697 95.4568 36.7323 96.1597 36.5205C97.1181 36.2339 97.4887 36.2463 98.3066 36.6575L98.7923 36.8943L98.5878 36.5828C98.345 36.2214 97.7316 35.8352 97.2332 35.7106C97.0415 35.6732 96.5942 35.6981 96.2236 35.7604C95.3418 35.9224 94.5494 35.723 93.9744 35.1997C93.4887 34.7511 93.4504 34.6141 93.7443 34.3399C94.2172 33.8665 96.1469 34.2153 98.0894 35.1249C99.4568 35.7604 100.351 36.3086 102.038 37.5546L103.061 38.3022L102.358 37.5048C100.364 35.2121 98.2555 33.5051 96.3002 32.5831C94.7539 31.8604 93.8849 31.6486 92.198 31.5738C91.0734 31.5364 90.6133 31.5738 89.8721 31.7607Z" fill="white"/>
<path d="M46 0.398632L46.0128 0.809814L46.2045 0.460933C46.3195 0.249112 46.4728 0.136971 46.5751 0.174351C46.6773 0.211731 46.7923 0.186811 46.8307 0.124511C46.8818 0.0497506 46.7157 -8.96454e-05 46.4601 -8.96454e-05C46.0256 -8.96454e-05 46 0.0248305 46 0.398632Z" fill="black"/>
<path d="M124.16 0.13698C124.185 0.199281 124.569 0.211741 124.99 0.174361C125.693 0.12452 125.757 0.13698 125.872 0.398642C125.987 0.685223 125.987 0.672763 125.987 0.348801C126 0.0248398 126 0.0248398 125.042 0.0248398C124.518 0.0248398 124.121 0.0746801 124.16 0.13698Z" fill="black"/>
<path d="M89.4761 25.4435C89.3739 25.5681 89.425 25.6054 89.6806 25.6179C89.8723 25.6304 89.949 25.6054 89.8595 25.5805C89.7828 25.5431 89.7317 25.4684 89.7828 25.4061C89.8851 25.2316 89.6295 25.269 89.4761 25.4435Z" fill="black"/>
<path d="M88.9265 25.8795C88.7603 26.0789 88.7731 26.0913 88.9776 25.9293C89.1821 25.7674 89.2587 25.8297 89.2076 26.0913C89.1948 26.1536 89.2715 26.1412 89.3737 26.0415C89.4888 25.9543 89.5782 25.8546 89.5782 25.8172C89.5782 25.7798 89.5399 25.7923 89.4888 25.8297C89.4504 25.8795 89.3354 25.8546 89.2587 25.7923C89.1437 25.7051 89.0415 25.73 88.9265 25.8795Z" fill="black"/>
<path d="M88.3003 26.6147C88.3003 26.6894 88.377 26.8265 88.4792 26.9012C88.607 27.0134 88.6837 27.0009 88.7987 26.8639C88.9265 26.7143 88.9137 26.6894 88.722 26.7143C88.5942 26.7393 88.4536 26.6894 88.4025 26.6147C88.3259 26.515 88.3003 26.515 88.3003 26.6147Z" fill="black"/>
<path d="M82.8307 27.8732C82.5496 27.9106 82.4473 27.9729 82.5112 28.0725C82.5623 28.1598 82.4857 28.1348 82.3579 28.0352C82.2173 27.923 82.1534 27.9106 82.2173 27.9978C82.2684 28.0975 82.2301 28.1598 82.1151 28.1598C82.0128 28.1598 81.8595 28.2719 81.77 28.4214C81.5783 28.7828 81.4761 30.7514 81.5911 32.1968C81.6678 33.1812 81.7189 33.393 81.8722 33.3431C81.9617 33.3058 82.0256 33.3182 81.9873 33.3681C81.8978 33.5176 82.1406 33.8415 82.2556 33.7169C82.3067 33.6546 82.3067 33.5923 82.2301 33.5674C82.1151 33.5176 82.0767 28.5709 82.2045 28.4588C82.2301 28.4339 82.6007 28.3716 83.0352 28.3342C83.4697 28.2844 83.8275 28.1971 83.8275 28.1348C83.8275 28.0725 83.8786 28.0476 83.9425 28.0975C84.0064 28.1348 84.0959 28.1099 84.1342 28.0476C84.1981 27.9604 83.5464 27.7486 83.3291 27.8109C83.2908 27.8109 83.0607 27.8483 82.8307 27.8732ZM82.0256 29.493C82.0128 30.0038 82 30.0412 81.9234 29.7173C81.8339 29.3684 81.8722 28.9074 81.9873 28.9074C82.0128 28.9074 82.0256 29.169 82.0256 29.493ZM81.7444 30.4898C81.7189 30.6891 81.6933 30.5272 81.6933 30.1534C81.6933 29.7796 81.7189 29.6176 81.7444 29.8045C81.77 30.0038 81.77 30.3029 81.7444 30.4898ZM81.8211 31.7607C81.8595 32.2716 81.8467 32.4959 81.77 32.3837C81.6678 32.2217 81.5911 30.7888 81.7061 30.9134C81.7317 30.9383 81.7828 31.3246 81.8211 31.7607Z" fill="black"/>
<path d="M91.3674 27.9728C91.2908 28.0725 91.2524 28.2095 91.3035 28.2843C91.4186 28.4587 91.6614 28.2967 91.5719 28.0974C91.5336 27.9977 91.6103 27.898 91.7253 27.8731C91.917 27.8233 91.917 27.8108 91.7381 27.7983C91.623 27.7983 91.4569 27.8731 91.3674 27.9728Z" fill="black"/>
<path d="M91.9552 28.0227C91.7251 28.1099 91.7379 28.1348 92.1085 28.3092C92.4536 28.4837 92.5302 28.4837 92.658 28.3342C92.7858 28.1846 92.773 28.1722 92.5814 28.2345C92.4152 28.2968 92.3769 28.2843 92.4408 28.1846C92.5047 28.085 92.4536 28.06 92.313 28.1223C92.1596 28.1722 92.1213 28.1597 92.1852 28.06C92.2874 27.8981 92.2874 27.8981 91.9552 28.0227Z" fill="black"/>
<path d="M92.7859 28.4588C92.5559 28.7329 92.8754 28.8575 93.131 28.6083C93.3355 28.409 93.3355 28.3965 93.1054 28.4837C92.9393 28.546 92.8882 28.5336 92.9521 28.4339C93.0799 28.2221 92.9649 28.247 92.7859 28.4588Z" fill="black"/>
<path d="M93.2972 28.708C93.1822 28.845 93.2077 28.8949 93.3994 28.9447C93.54 28.9821 93.7189 28.9323 93.7956 28.845C93.9106 28.708 93.885 28.6955 93.655 28.7454C93.4633 28.7952 93.3994 28.7827 93.4633 28.6831C93.5911 28.4837 93.4761 28.4962 93.2972 28.708Z" fill="black"/>
<path d="M89.7827 28.7577C89.7061 28.8823 90.4345 28.8574 90.5623 28.7453C90.6006 28.6954 90.4601 28.658 90.2428 28.658C90.0256 28.658 89.8211 28.7079 89.7827 28.7577Z" fill="black"/>
<path d="M92.1343 28.8076C92.1343 28.8325 92.326 29.0194 92.5432 29.2312C92.7733 29.4306 92.8627 29.4804 92.7349 29.3309C92.6199 29.1938 92.556 29.0194 92.6071 28.9571C92.671 28.8948 92.6582 28.8823 92.5943 28.9322C92.5304 28.982 92.4026 28.9696 92.3004 28.8948C92.211 28.82 92.1343 28.7827 92.1343 28.8076Z" fill="black"/>
<path d="M94.2172 28.9945C94.1277 29.0195 94.051 29.1067 94.051 29.169C94.051 29.2437 94.1021 29.2687 94.166 29.2313C94.2299 29.1814 94.3066 29.2188 94.3322 29.2936C94.3577 29.3808 94.4472 29.3559 94.5494 29.2313C94.7028 29.0568 94.7028 29.0319 94.4983 29.1067C94.3322 29.169 94.2938 29.1565 94.3577 29.0568C94.46 28.8949 94.4472 28.8949 94.2172 28.9945Z" fill="black"/>
<path d="M91.4059 29.1191C91.2269 29.1814 91.2142 29.1565 91.8915 29.7546C92.211 30.0287 92.2238 30.0287 92.1982 29.7795C92.1854 29.6424 92.1087 29.4555 92.0065 29.3683C91.8787 29.2437 91.8659 29.2562 91.9426 29.3932C92.0065 29.5054 91.9809 29.5427 91.8659 29.5054C91.7637 29.468 91.687 29.3808 91.687 29.306C91.687 29.1191 91.5848 29.0568 91.4059 29.1191Z" fill="black"/>
<path d="M92.4793 29.8792C92.5049 29.9166 92.4538 30.0162 92.3771 30.1035C92.2876 30.2031 92.2876 30.2779 92.3899 30.3402C92.4666 30.39 92.5049 30.3651 92.4921 30.3028C92.4666 30.2281 92.5049 30.1907 92.5816 30.1907C92.6455 30.2031 92.7094 30.2654 92.7094 30.3402C92.7094 30.6143 93.0544 31.0255 93.2717 31.0255C93.4122 31.0255 93.54 31.1003 93.5784 31.2C93.6678 31.4242 94.3068 31.5738 94.4857 31.3993C94.588 31.2996 94.5624 31.2872 94.3835 31.3495C94.2174 31.4118 94.1662 31.3993 94.2301 31.2996C94.2813 31.2 94.2557 31.175 94.1407 31.2249C94.0384 31.2623 93.7828 31.1377 93.5912 30.9507C93.3867 30.7638 93.31 30.6517 93.4122 30.714C93.5273 30.7763 93.5656 30.7763 93.5017 30.7015C93.4378 30.6392 93.3356 30.5894 93.2717 30.5894C93.2205 30.5894 93.0033 30.415 92.8116 30.2031C92.6199 30.0038 92.4666 29.8543 92.4793 29.8792Z" fill="black"/>
<path d="M95.1246 31.175L95.1118 31.7108L95.2652 31.337L95.4313 30.9632L95.4824 31.2747C95.5335 31.5613 95.5463 31.5613 95.6486 31.3495C95.7636 31.0878 95.5974 30.7265 95.3163 30.6766C95.1885 30.6517 95.1374 30.8012 95.1246 31.175Z" fill="black"/>
<path d="M91.214 30.9882C91.0096 31.0131 90.8562 31.1003 90.8562 31.1751C90.8562 31.2498 90.984 31.2748 91.1501 31.2249C91.3035 31.1875 91.5974 31.1502 91.7891 31.1502C91.9936 31.1502 92.1214 31.1003 92.0703 31.0256C91.9936 30.901 91.853 30.8885 91.214 30.9882Z" fill="black"/>
<path d="M92.3514 30.9881C92.2492 31.1377 92.7348 31.3495 92.8626 31.2249C92.9137 31.1875 92.8498 31.1501 92.7476 31.1501C92.6326 31.1501 92.5176 31.0878 92.492 31.0006C92.4537 30.8885 92.4153 30.8885 92.3514 30.9881Z" fill="black"/>
<path d="M90.1534 31.1501C90.1022 31.2248 90.23 31.2747 90.4345 31.2747C90.7157 31.2747 90.754 31.2497 90.6006 31.1501C90.3578 31.0005 90.2556 31.0005 90.1534 31.1501Z" fill="black"/>
<path d="M86.7668 32.421C86.524 32.7201 86.4473 32.8571 86.5879 32.7325C86.869 32.5082 87.0479 32.5581 86.9457 32.8322C86.8051 33.1686 87.2524 33.0939 87.6997 32.6951C87.9553 32.4584 88.1214 32.2715 88.0703 32.2715C88.0064 32.2715 87.8275 32.4086 87.6614 32.583C87.3802 32.8696 87.3419 32.882 87.1246 32.6827C86.9074 32.4958 86.9074 32.4584 87.0863 32.1843C87.393 31.7233 87.2269 31.8479 86.7668 32.421Z" fill="black"/>
<path d="M86.409 33.3929C86.0767 33.8165 86.0512 34.0159 86.3195 34.0159C86.4346 34.0159 86.5112 33.9037 86.5112 33.7542C86.5112 33.5175 86.5368 33.505 86.7285 33.6545C86.9202 33.804 86.933 33.804 86.8307 33.6421C86.7668 33.5424 86.7285 33.3555 86.7413 33.2309C86.7924 32.9318 86.7285 32.9568 86.409 33.3929Z" fill="black"/>
<path d="M81.412 33.4179C81.3865 33.6297 81.6676 34.153 81.7699 34.0783C81.8338 34.0409 81.9232 34.0658 81.9743 34.1281C82.0127 34.2029 82.1277 34.2278 82.2299 34.1904C82.3322 34.1406 82.5878 34.178 82.7922 34.2403C83.0862 34.3399 83.2012 34.3275 83.329 34.1904C83.4312 34.0658 83.444 33.9661 83.3545 33.8789C83.2523 33.7792 83.1884 33.7917 83.1245 33.9038C83.0478 34.0035 83.0734 34.0284 83.1884 33.9537C83.2906 33.8914 83.329 33.9163 83.3034 34.0035C83.2651 34.0907 83.1884 34.153 83.1245 34.1406C82.4344 34.0783 81.9999 33.9537 81.9488 33.8166C81.9104 33.7169 81.8082 33.6422 81.7187 33.6422C81.6293 33.6422 81.5143 33.5674 81.4887 33.4802C81.4504 33.4054 81.412 33.3681 81.412 33.4179Z" fill="black"/>
<path d="M93.9233 34.315C93.9233 34.3399 94.0639 34.4521 94.2428 34.5642C94.6007 34.8009 94.6646 34.7511 94.3578 34.4645C94.1789 34.2776 93.9233 34.1904 93.9233 34.315Z" fill="black"/>
<path d="M88.5049 34.9504C88.4665 35.0626 88.4282 35.2744 88.441 35.4239C88.4538 35.5984 88.4921 35.5361 88.556 35.2619C88.671 34.8009 88.6455 34.614 88.5049 34.9504Z" fill="black"/>
<path d="M90.5752 35.1373C90.6902 35.2619 90.818 35.2993 90.8435 35.237C90.8563 35.1747 90.9969 35.2121 91.1247 35.3367C91.3036 35.4862 91.3292 35.5859 91.2269 35.7105C91.1247 35.8226 91.1758 35.9472 91.3931 36.1591C91.5592 36.321 91.7381 36.4332 91.7892 36.4083C91.8403 36.3958 91.917 36.4706 91.9554 36.5702C92.0576 36.807 92.3515 36.8194 92.3515 36.5827C92.3515 36.4955 92.2876 36.4207 92.2109 36.4332C92.1343 36.4332 92.0704 36.4083 92.0704 36.3709C92.0704 36.184 91.5847 35.7728 91.4569 35.8476C91.3803 35.8974 91.3547 35.8476 91.4058 35.7354C91.4953 35.4987 90.9585 34.9754 90.6007 34.9504C90.3579 34.9255 90.3579 34.938 90.5752 35.1373Z" fill="black"/>
<path d="M97.2842 34.9754C97.0159 35.0751 97.0926 35.262 97.412 35.262C97.6165 35.262 97.6421 35.2246 97.5143 35.1498C97.3737 35.0626 97.3737 35.0377 97.5143 34.9754C97.6165 34.938 97.6421 34.9131 97.5654 34.9131C97.5015 34.9131 97.3609 34.938 97.2842 34.9754Z" fill="black"/>
<path d="M86.2811 35.2993C86.2684 35.5361 86.2045 35.6233 86.1022 35.561C85.8722 35.4239 86.0639 36.7323 86.3706 37.3303C86.5112 37.6169 86.7156 37.8786 86.8179 37.916C86.9329 37.9658 86.9968 38.0655 86.9585 38.1527C86.9201 38.2399 87.0096 38.4517 87.1501 38.6262C87.2907 38.8006 87.4057 38.8754 87.4057 38.7882C87.4057 38.7009 87.5335 38.6636 87.6997 38.6885C87.9297 38.7383 87.8914 38.6636 87.4696 38.2773C87.1885 38.0281 86.9712 37.7789 86.984 37.7291C87.0096 37.6792 86.9329 37.6668 86.8307 37.7041C86.7284 37.754 86.639 37.7291 86.639 37.6543C86.639 37.5795 86.6006 37.43 86.5495 37.3054C86.4984 37.1559 86.5112 37.1185 86.6134 37.1808C86.7156 37.2307 86.7412 37.2057 86.6901 37.0811C86.6517 36.9815 86.5367 36.9316 86.4217 36.969C86.2556 37.0313 86.2556 37.0064 86.3706 36.7696C86.4601 36.6201 86.4728 36.5204 86.3962 36.5329C86.2428 36.5827 86.2172 36.4955 86.3195 36.2463C86.3578 36.1342 86.3834 35.7977 86.345 35.4987C86.3195 35.1872 86.2939 35.1 86.2811 35.2993Z" fill="black"/>
<path d="M96.5432 35.1374C96.5049 35.1997 96.326 35.2246 96.147 35.1872C95.9681 35.1374 95.8403 35.1623 95.8403 35.2495C95.8403 35.3243 96.0576 35.3866 96.3515 35.3866C96.6327 35.3866 96.8627 35.3368 96.8627 35.2745C96.8627 35.0876 96.6327 34.9879 96.5432 35.1374Z" fill="black"/>
<path d="M76.3771 35.4738C76.3259 35.5112 76.2876 35.6233 76.2876 35.723C76.2876 35.9223 77.2716 35.9473 77.5656 35.7604C77.7189 35.6607 77.6933 35.6358 77.4633 35.6358C77.2972 35.6358 77.2077 35.5859 77.2461 35.5112C77.2844 35.4364 77.2333 35.3866 77.131 35.3866C77.016 35.3866 76.9266 35.4613 76.9266 35.561C76.9266 35.6731 76.8371 35.7105 76.671 35.6731C76.5304 35.6358 76.4537 35.561 76.4921 35.4987C76.5687 35.3616 76.4921 35.3492 76.3771 35.4738Z" fill="black"/>
<path d="M98.0127 35.536C98.0127 35.6606 98.2811 35.8102 98.5367 35.8226C98.6517 35.8351 98.9073 35.9846 99.1117 36.1715C99.3162 36.3584 99.5846 36.5079 99.6996 36.5079C99.8274 36.5079 99.9296 36.5702 99.9296 36.645C99.9296 36.7447 99.9935 36.7447 100.121 36.6325C100.351 36.4456 100.249 36.2463 99.968 36.3459C99.8146 36.4082 99.7891 36.3833 99.8657 36.2463C99.9552 36.0967 99.9424 36.0967 99.7507 36.2463C99.5462 36.4082 99.5335 36.4082 99.5718 36.184C99.5974 36.0095 99.5462 35.9597 99.3673 35.9846C99.2395 36.0095 99.1756 35.9721 99.2268 35.8974C99.2779 35.8102 99.2268 35.7977 99.099 35.8351C98.9712 35.8849 98.9073 35.86 98.9328 35.7479C98.9584 35.6357 98.8817 35.5859 98.7284 35.6108C98.6006 35.6357 98.5239 35.6108 98.5622 35.5485C98.6006 35.4987 98.4855 35.4488 98.3194 35.4488C98.1533 35.4488 98.0127 35.4862 98.0127 35.536Z" fill="black"/>
<path d="M75.3931 35.6358C75.3931 35.6981 75.5081 35.7604 75.6359 35.7604C75.7765 35.7604 75.9298 35.6981 75.9681 35.6358C76.0193 35.561 75.9042 35.5112 75.7253 35.5112C75.5464 35.5112 75.3931 35.561 75.3931 35.6358Z" fill="black"/>
<path d="M96.6454 35.5984C96.7604 35.6233 96.9649 35.6233 97.0927 35.5984C97.2077 35.561 97.1055 35.5361 96.8627 35.5361C96.6199 35.5361 96.5176 35.561 96.6454 35.5984Z" fill="black"/>
<path d="M78.3963 35.7603C78.3451 35.8351 78.1918 35.8849 78.0384 35.8974C77.8851 35.8974 77.834 35.9348 77.9234 35.9721C78.0129 36.0095 78.179 35.9971 78.3068 35.9348C78.4218 35.8849 78.6007 35.86 78.6902 35.8725C78.9074 35.9098 78.8819 35.7977 78.6518 35.7229C78.5496 35.6731 78.4346 35.698 78.3963 35.7603Z" fill="black"/>
<path d="M95.4313 35.723C95.5847 35.7479 95.8147 35.7479 95.9425 35.723C96.0575 35.6856 95.9297 35.6607 95.6486 35.6732C95.3674 35.6732 95.2652 35.6981 95.4313 35.723Z" fill="black"/>
<path d="M101.578 36.5454C101.821 36.7946 102.128 37.0438 102.268 37.0812C102.396 37.1185 102.473 37.2307 102.434 37.3179C102.409 37.4051 102.498 37.5796 102.652 37.7166C102.92 37.9409 102.92 37.9409 102.741 37.7042C102.639 37.5796 102.549 37.3802 102.549 37.2681C102.549 37.1684 102.409 37.0064 102.23 36.9192C102.051 36.832 101.936 36.6824 101.949 36.6077C101.974 36.5204 101.949 36.4831 101.898 36.5454C101.847 36.5952 101.655 36.508 101.476 36.3585C101.297 36.1965 101.335 36.2837 101.578 36.5454Z" fill="black"/>
<path d="M96.901 36.4706C97.0161 36.4955 97.2205 36.4955 97.3483 36.4706C97.4633 36.4332 97.3611 36.4083 97.1183 36.4083C96.8755 36.4083 96.7732 36.4332 96.901 36.4706Z" fill="black"/>
<path d="M98.6901 36.6325C98.7923 36.807 98.8562 37.0437 98.8435 37.1558C98.7923 37.405 99.099 37.4549 99.4185 37.2555C99.5719 37.1683 99.5719 37.106 99.4441 36.9814C99.3674 36.9066 99.2907 36.8817 99.2907 36.944C99.2907 37.0063 99.1118 36.8942 98.8946 36.6824C98.524 36.3459 98.4984 36.3459 98.6901 36.6325Z" fill="black"/>
<path d="M98.3066 36.8444C98.0638 36.9316 98.1021 37.0936 98.3961 37.1684C98.5366 37.2057 98.6517 37.1808 98.6517 37.1185C98.6517 37.0562 98.5878 37.0064 98.5111 37.0064C98.4472 37.0064 98.4216 36.9441 98.46 36.8818C98.5494 36.7447 98.5366 36.7447 98.3066 36.8444Z" fill="black"/>
<path d="M94.115 37.131C94.1789 37.3428 94.1405 37.3802 93.7955 37.3802C93.476 37.3802 93.3993 37.3428 93.4632 37.1808C93.5271 37.0313 93.476 37.0064 93.2459 37.0811C93.0926 37.131 92.9265 37.2182 92.8881 37.293C92.837 37.3553 92.5559 37.4176 92.2619 37.4176C91.8913 37.4176 91.7763 37.4549 91.9169 37.5172C92.0191 37.5795 92.3258 37.6294 92.5942 37.6169C92.8753 37.6169 93.4632 37.6418 93.9233 37.6668C94.7156 37.7166 94.7156 37.7166 94.0511 37.6294C93.361 37.5546 93.3737 37.5422 94.4089 37.5297C95.1629 37.5048 95.444 37.4674 95.4313 37.3428C95.3929 37.1808 95.2012 37.0064 95.0479 37.0064C94.9967 37.0064 94.984 37.0936 95.0223 37.1933C95.0862 37.3303 95.0095 37.3802 94.7156 37.3802C94.2939 37.3802 94.0511 37.0562 94.4089 36.969C94.5622 36.9316 94.5367 36.9067 94.3322 36.8942C94.0894 36.8818 94.0511 36.9316 94.115 37.131Z" fill="black"/>
<path d="M71.687 37.3178C71.5976 37.4175 71.4825 37.4673 71.4186 37.4424C71.3675 37.405 71.342 37.4798 71.3675 37.6044C71.4186 37.9034 70.5624 38.7383 70.2557 38.6884C70.1279 38.6635 70.0001 38.7009 69.949 38.7632C69.9107 38.8255 70.0257 38.8629 70.2174 38.8504C70.5113 38.8255 71.7765 37.7539 71.4953 37.7539C71.4314 37.7539 71.5209 37.6168 71.687 37.4424C71.8531 37.268 71.9554 37.1309 71.917 37.1309C71.8787 37.1309 71.7765 37.2181 71.687 37.3178Z" fill="black"/>
<path d="M101.898 37.592C101.949 37.6917 101.923 37.754 101.834 37.754C101.732 37.754 101.732 37.8038 101.847 37.9409C101.936 38.0406 102.064 38.1278 102.128 38.1278C102.205 38.1278 102.179 38.0406 102.09 37.916C101.987 37.8038 101.936 37.6917 101.949 37.6668C101.975 37.6294 101.949 37.5671 101.898 37.5297C101.847 37.4799 101.847 37.5173 101.898 37.592Z" fill="black"/>
<path d="M102.409 38.1776C102.307 38.4392 102.754 38.813 102.894 38.5888C102.984 38.4642 103.035 38.5389 103.022 38.7507C103.022 38.7881 103.163 38.838 103.329 38.8504C103.521 38.8629 103.61 38.8255 103.572 38.7507C103.533 38.676 103.431 38.6261 103.342 38.6261C103.265 38.6261 103.048 38.4766 102.843 38.2897C102.537 38.0031 102.486 37.9907 102.409 38.1776Z" fill="black"/>
<path d="M83.4951 38.8006C83.5079 38.9127 83.5846 39.0622 83.6613 39.137C83.7763 39.2491 83.8019 39.2242 83.7763 39.0747C83.7635 38.9625 83.6868 38.813 83.6102 38.7383C83.4951 38.6261 83.4696 38.651 83.4951 38.8006Z" fill="black"/>
<path d="M95.8146 38.7134C95.968 38.7383 96.198 38.7383 96.3258 38.7134C96.4408 38.676 96.313 38.6511 96.0319 38.6635C95.7507 38.6635 95.6485 38.6884 95.8146 38.7134Z" fill="black"/>
<path d="M77.2204 39.0871C77.3354 39.1121 77.5399 39.1121 77.6677 39.0871C77.7827 39.0498 77.6804 39.0248 77.4376 39.0248C77.1948 39.0248 77.0926 39.0498 77.2204 39.0871Z" fill="black"/>
<path d="M88.1597 39.2616C88.4664 39.5482 88.952 39.7849 89.0415 39.6977C89.0798 39.6603 89.0415 39.623 88.952 39.623C88.8625 39.623 88.8114 39.5482 88.8498 39.461C88.8881 39.3488 88.8114 39.299 88.6325 39.299C88.4919 39.3115 88.3769 39.2492 88.3897 39.1869C88.4025 39.1121 88.3002 39.0498 88.1724 39.0498C87.9424 39.0498 87.9424 39.0623 88.1597 39.2616Z" fill="black"/>
<path d="M94.7411 39.1495C94.69 39.2118 94.5878 39.2367 94.5111 39.2118C94.4216 39.1744 94.345 39.2243 94.345 39.3115C94.345 39.4112 94.4344 39.4485 94.5367 39.3987C94.6645 39.3613 94.7028 39.3862 94.6389 39.4735C94.575 39.5731 94.6389 39.623 94.805 39.623C94.9328 39.623 95.0862 39.6977 95.1117 39.7725C95.1501 39.8722 95.1884 39.8473 95.1884 39.7102C95.2012 39.5981 95.1501 39.4984 95.0734 39.4984C95.0095 39.4984 94.9456 39.4361 94.9456 39.3738C94.9456 39.299 95.0734 39.2492 95.2268 39.2492C95.3801 39.2492 95.4568 39.2118 95.4057 39.162C95.2779 39.0374 94.8178 39.0249 94.7411 39.1495Z" fill="black"/>
<path d="M96.8115 39.1121C96.6709 39.1619 96.6198 39.2367 96.6837 39.274C96.7476 39.299 96.9393 39.2616 97.1182 39.1744C97.4505 38.9999 97.2204 38.9501 96.8115 39.1121Z" fill="black"/>
<path d="M98.7539 39.2616C98.8306 39.3738 98.8689 39.4859 98.8306 39.5233C98.805 39.5607 98.8562 39.623 98.9584 39.6603C99.0606 39.6977 99.1756 39.6479 99.2268 39.5233C99.2651 39.4111 99.2651 39.3613 99.214 39.4111C99.1629 39.461 98.9967 39.3987 98.8562 39.2865C98.6645 39.1121 98.6261 39.1121 98.7539 39.2616Z" fill="black"/>
<path d="M69.3867 39.9718C69.3867 40.059 69.3228 40.0964 69.2461 40.0466C69.1439 39.9843 69.1439 40.0341 69.2461 40.2086C69.3228 40.3456 69.3356 40.4952 69.2972 40.545C69.2589 40.5824 69.2589 40.6198 69.2972 40.6198C69.4761 40.6198 69.6167 40.1712 69.5017 39.9843C69.425 39.8597 69.3867 39.8472 69.3867 39.9718Z" fill="black"/>
<path d="M94.3451 39.9593C94.4602 39.9843 94.6646 39.9843 94.7924 39.9593C94.9074 39.922 94.8052 39.897 94.5624 39.897C94.3196 39.897 94.2173 39.922 94.3451 39.9593Z" fill="black"/>
<path d="M91.9681 40.084C92.1981 40.1089 92.607 40.1089 92.8626 40.084C93.131 40.0591 92.9521 40.0341 92.4537 40.0341C91.9681 40.0341 91.7508 40.0591 91.9681 40.084Z" fill="black"/>
<path d="M80.3003 40.383C80.2492 40.4702 80.3131 40.5824 80.4281 40.6447C80.5559 40.707 80.6965 40.8814 80.7476 41.0309C80.7987 41.168 80.9776 41.2926 81.1437 41.305L81.4249 41.33L81.131 41.0932C80.9648 40.9562 80.9137 40.8939 81.0159 40.9437C81.1182 40.9935 81.0415 40.8565 80.837 40.6447C80.4025 40.1961 80.4281 40.1961 80.3003 40.383Z" fill="black"/>
<path d="M81.1055 41.6789C81.1439 41.7412 81.2589 41.8908 81.3356 41.9904C81.6039 42.3144 81.6934 42.8876 81.6678 44.1086C81.6551 45.2051 81.6678 45.2674 81.834 44.9808L82.0257 44.6693L82.0512 44.9808C82.064 45.2051 82.0896 45.23 82.1279 45.0681C82.1662 44.9435 82.1151 44.7566 82.0257 44.6569C81.9106 44.5198 81.9106 44.4326 82.0129 44.3329C82.1023 44.2457 82.1662 43.9342 82.1662 43.6102C82.1662 43.2489 82.1279 43.1118 82.0512 43.2115C81.9362 43.3984 81.7317 42.7131 81.719 42.115C81.719 41.8908 81.6551 41.816 81.5017 41.8409C81.2461 41.8783 81.195 41.6665 81.4378 41.5793C81.5145 41.5419 81.4634 41.5294 81.31 41.5294C81.1567 41.5419 81.0672 41.6042 81.1055 41.6789Z" fill="black"/>
<path d="M76.4153 41.7287C76.4153 41.791 76.5686 41.8159 76.7603 41.791C77.2587 41.7038 77.2971 41.6165 76.8242 41.6165C76.5942 41.6165 76.4153 41.6664 76.4153 41.7287Z" fill="black"/>
<path d="M77.3866 41.8783C77.4122 41.9281 77.2205 42.0029 76.9649 42.0278L76.4792 42.0776L76.9393 42.0901C77.1949 42.1025 77.4761 42.0402 77.5527 41.953C77.655 41.8284 77.6422 41.7786 77.5016 41.7786C77.3994 41.7786 77.3483 41.8284 77.3866 41.8783Z" fill="black"/>
<path d="M78.7158 42.0526C78.6263 42.1523 78.6007 42.2395 78.6646 42.2395C78.7158 42.2395 78.6646 42.3143 78.5368 42.4015C78.3324 42.551 78.3324 42.5759 78.5113 42.7255C78.6902 42.8625 78.7158 42.8625 78.7158 42.6756C78.7158 42.4638 78.7285 42.4638 78.9713 42.6756C79.1247 42.8002 79.2269 42.8376 79.2269 42.7504C79.2269 42.6756 79.1119 42.5136 78.9713 42.4015C78.7924 42.2395 78.7541 42.1523 78.8691 42.0277C78.9458 41.9405 78.9713 41.8657 78.933 41.8657C78.9074 41.8657 78.8052 41.9529 78.7158 42.0526Z" fill="black"/>
<path d="M75.6486 42.115C75.6486 42.1773 75.5592 42.2396 75.4569 42.2396C75.3547 42.2396 75.2652 42.3144 75.2652 42.414C75.2652 42.5137 75.2013 42.6134 75.1119 42.6383C75.0352 42.6632 75.0097 42.7629 75.0608 42.8501C75.1375 42.9623 75.2141 42.9498 75.4058 42.7878C75.5336 42.6757 75.6103 42.5386 75.5847 42.4763C75.5464 42.4265 75.6486 42.2894 75.802 42.1898C76.032 42.0278 76.0448 41.9904 75.8659 41.9904C75.7509 41.9904 75.6486 42.0402 75.6486 42.115Z" fill="black"/>
<path d="M68.3769 42.7379C68.3642 42.9871 68.3386 43.0121 68.2364 42.8625C68.1341 42.7006 68.1086 42.7006 68.1086 42.875C68.1086 42.9871 68.0702 43.2737 68.0319 43.498C67.9808 43.822 67.9936 43.8718 68.0958 43.7347C68.1852 43.6226 68.2364 43.6101 68.2364 43.6974C68.2364 43.7721 68.1852 43.8718 68.1213 43.9216C67.9424 44.0213 68.0191 45.691 68.198 45.8654C68.4153 46.0772 68.6197 45.5165 68.607 44.8188C68.5942 44.3702 68.5814 44.3453 68.492 44.6069C68.4281 44.8188 68.3897 44.6194 68.3897 43.9839C68.4025 43.2613 68.4153 43.1491 68.492 43.4855C68.5814 43.9092 68.5814 43.9092 68.5942 43.5478C68.5942 43.336 68.5431 42.9996 68.492 42.8002C68.4025 42.4514 68.3897 42.4514 68.3769 42.7379Z" fill="black"/>
<path d="M85.3994 44.1085C85.3994 44.4823 85.4246 44.6443 85.4498 44.4449C85.475 44.258 85.475 43.959 85.4498 43.7596C85.4246 43.5727 85.3994 43.7347 85.3994 44.1085Z" fill="black"/>
<path d="M71.7253 44.1086C71.7253 44.4201 71.7505 44.5447 71.7758 44.3828C71.801 44.2332 71.801 43.984 71.7758 43.8221C71.7505 43.6725 71.7253 43.7971 71.7253 44.1086Z" fill="black"/>
<path d="M74.588 44.1335C74.6263 44.7939 74.6263 44.8063 74.7669 44.5696C74.9075 44.3328 74.8308 43.7348 74.6519 43.7348C74.6008 43.7348 74.5752 43.9217 74.588 44.1335Z" fill="black"/>
<path d="M79.2908 44.7939C79.2525 44.8935 79.2014 45.068 79.1758 45.1552C79.1375 45.2798 79.1758 45.3172 79.3036 45.2673C79.3931 45.23 79.4825 45.068 79.4825 44.906C79.4825 44.5696 79.3803 44.5073 79.2908 44.7939Z" fill="black"/>
<path d="M78.639 45.2923C78.409 45.6288 78.3962 45.6911 78.5623 45.6786C78.6773 45.6537 78.8051 45.4792 78.869 45.2923C78.9968 44.8064 78.9585 44.8064 78.639 45.2923Z" fill="black"/>
<path d="M75.2012 45.4045C75.6229 45.7284 75.6485 45.7907 75.444 45.8655C75.2268 45.9527 75.2268 45.9652 75.4313 45.9652C75.5463 45.9776 75.6485 46.0275 75.6485 46.0773C75.6485 46.1396 75.7252 46.1895 75.8146 46.1895C75.9169 46.1895 75.9936 46.1147 75.9936 46.0275C75.9936 45.9403 75.9041 45.9029 75.8019 45.9527C75.6868 45.9901 75.6357 45.9652 75.6868 45.8904C75.738 45.8157 75.6102 45.6163 75.4057 45.4418C75.1884 45.2674 75.0479 45.1054 75.0862 45.0805C75.1118 45.0431 75.0479 45.0182 74.9201 45.0182C74.7923 45.0182 74.8817 45.1553 75.2012 45.4045Z" fill="black"/>
<path d="M68.5049 46.2891C68.5049 46.4884 68.5432 46.7376 68.6071 46.8373C68.7221 47.0118 69.0033 46.9245 69.0033 46.7127C69.0033 46.638 68.9394 46.6255 68.8627 46.6753C68.7477 46.7376 68.7349 46.6629 68.7988 46.4261C68.8499 46.2143 68.8372 46.1146 68.7605 46.152C68.6966 46.1894 68.6071 46.152 68.5816 46.0772C68.5432 45.99 68.5049 46.0772 68.5049 46.2891Z" fill="black"/>
<path d="M81.5782 46.0773C81.6293 46.1521 81.6038 46.3514 81.5271 46.501C81.3865 46.7751 81.3993 46.7751 81.5782 46.5508C81.821 46.2518 81.8338 46.1521 81.6293 46.0275C81.5399 45.9776 81.5271 45.9901 81.5782 46.0773Z" fill="black"/>
<path d="M76.7091 46.1894C76.8242 46.2144 77.0286 46.2144 77.1564 46.1894C77.2714 46.1521 77.1692 46.1271 76.9264 46.1271C76.6836 46.1271 76.5814 46.1521 76.7091 46.1894Z" fill="black"/>
<path d="M80.9394 46.9121C80.8883 47.0117 80.7988 47.0616 80.7349 47.0242C80.6583 46.9744 80.671 47.0616 80.7477 47.2111C80.8372 47.3482 80.8499 47.4852 80.7988 47.4852C80.7477 47.4977 80.6455 47.5101 80.5688 47.5226C80.5049 47.5351 80.1599 47.722 79.8148 47.9462C79.457 48.1581 79.1119 48.345 79.048 48.345C78.9714 48.345 78.7413 48.4322 78.5368 48.5319C78.3324 48.644 77.8084 48.7686 77.3867 48.806C76.9522 48.8558 76.6838 48.9057 76.7733 48.943C76.8499 48.968 76.9011 49.0427 76.8499 49.105C76.8116 49.1673 76.9394 49.2172 77.1439 49.2172C77.3739 49.2172 77.4378 49.1798 77.3356 49.1175C77.2461 49.0552 77.5017 48.9555 78.0129 48.8558C78.473 48.7686 78.8436 48.644 78.8436 48.5692C78.8436 48.5069 78.8947 48.482 78.9458 48.5194C79.0097 48.5568 79.3547 48.3948 79.7253 48.1581C80.096 47.9213 80.441 47.7469 80.5049 47.7843C80.6199 47.859 81.0416 47.4105 80.9394 47.3232C80.9011 47.2734 80.9266 47.1239 81.0161 46.9868C81.0928 46.8373 81.1183 46.7252 81.08 46.7252C81.0416 46.7252 80.9777 46.8124 80.9394 46.9121Z" fill="black"/>
<path d="M73.7828 48.0584C73.8084 48.183 73.8595 48.2702 73.9106 48.2577C74.1023 48.2203 74.1151 48.1207 73.9362 47.9836C73.7828 47.859 73.7572 47.8715 73.7828 48.0584Z" fill="black"/>
<path d="M69.3355 48.1955C69.2844 48.2702 69.3738 48.507 69.5272 48.7188C69.8594 49.1549 69.8594 49.1424 69.8594 48.9057C69.8594 48.806 69.7955 48.7188 69.7317 48.7188C69.6678 48.7188 69.6422 48.6066 69.6805 48.4696C69.7189 48.3325 69.6933 48.2453 69.6422 48.2827C69.5783 48.3201 69.5144 48.2827 69.4888 48.1955C69.4505 48.0833 69.4122 48.0833 69.3355 48.1955Z" fill="black"/>
<path d="M70.1533 49.5287C70.3578 49.7405 70.4856 49.7903 70.5495 49.7031C70.6389 49.5661 70.8306 49.7654 70.869 50.0271C70.869 50.0894 70.8945 50.2264 70.8945 50.3261C70.9201 50.4507 70.9584 50.4632 71.099 50.351C71.2268 50.2514 71.3035 50.2514 71.4057 50.3635C71.4824 50.4507 71.5463 50.5629 71.5463 50.6252C71.5591 50.7871 71.8019 51.1609 71.8147 51.0114C71.8147 50.9491 71.7508 50.8245 71.6613 50.7373C71.5719 50.6501 71.5591 50.5878 71.623 50.5878C71.6869 50.5878 71.4568 50.3137 71.1118 49.9648C70.7795 49.6284 70.4473 49.3792 70.3961 49.4165C70.345 49.4415 70.2683 49.4165 70.2172 49.3418C70.1789 49.2795 70.0766 49.2172 70 49.2172C69.9233 49.2172 69.9872 49.3542 70.1533 49.5287Z" fill="black"/>
<path d="M82.9968 49.8651L82.4856 50.4009L83.0607 49.9025C83.3802 49.6284 83.6613 49.3916 83.6869 49.3667C83.7124 49.3542 83.6869 49.3418 83.623 49.3418C83.5463 49.3418 83.2651 49.5785 82.9968 49.8651Z" fill="black"/>
<path d="M72.3769 51.0614C72.4153 51.1237 72.4025 51.2109 72.3386 51.2358C72.2747 51.2483 72.3514 51.3729 72.5175 51.485C72.8114 51.6968 72.8242 51.6968 72.7987 51.4725C72.7859 51.323 72.722 51.2607 72.5942 51.3106C72.4792 51.3479 72.4408 51.323 72.5047 51.2358C72.5431 51.161 72.5175 51.0614 72.4408 51.0115C72.3514 50.9617 72.3258 50.9741 72.3769 51.0614Z" fill="black"/>
<path d="M46.0256 77.6261C46.0511 77.9127 46.0894 77.9376 46.5623 77.8753C47.0224 77.8255 47.0479 77.813 46.7029 77.7757C46.4984 77.7507 46.2556 77.6386 46.1661 77.5264C46.0256 77.3395 46.0128 77.352 46.0256 77.6261Z" fill="black"/>
<path d="M125.361 77.8255C125.757 78.0249 126.038 78.0498 125.974 77.8629C125.949 77.7757 125.732 77.7009 125.489 77.6885C125.054 77.6511 125.054 77.6511 125.361 77.8255Z" fill="black"/>
</g>
<path d="M0.97398 53.3201V39.3813H8.22472C9.36463 39.3813 10.2953 39.5906 11.0168 40.009C11.7527 40.4275 12.301 41.0119 12.6617 41.7622C13.0225 42.4981 13.2028 43.3566 13.2028 44.3378C13.2028 45.2757 12.9648 46.1054 12.4886 46.8269C12.0268 47.5339 11.4064 48.075 10.6272 48.4502C10.7859 48.58 10.923 48.7388 11.0384 48.9263C11.1539 49.0995 11.2837 49.3448 11.428 49.6622L13.0297 53.3201H8.78746L7.31567 49.9652C7.20023 49.7055 7.05594 49.5252 6.88279 49.4241C6.72407 49.3087 6.4932 49.251 6.19018 49.251H5.04305V53.3201H0.97398ZM5.04305 46.1343H7.18581C7.77741 46.1343 8.23193 45.9828 8.54938 45.6797C8.88125 45.3623 9.04719 44.915 9.04719 44.3378C9.04719 43.1113 8.47002 42.4981 7.31567 42.4981H5.04305V46.1343ZM14.7128 53.3201V39.3813H18.7819V44.2945L23.0025 39.3813H27.6343L22.7211 45.0954L27.9806 53.3201H23.6518L20.2104 47.6926L18.7819 49.2943V53.3201H14.7128ZM29.4874 53.3201V39.3813H33.4483L36.9113 46.4589L40.3527 39.3813H44.2919V53.3201H40.2228V46.3507L37.9935 50.9392H35.8074L33.5565 46.3507V53.3201H29.4874ZM50.6875 53.3201V39.3813H54.6484L58.1114 46.4589L61.5528 39.3813H65.492V53.3201H61.4229V46.3507L59.1936 50.9392H57.0076L54.7566 46.3507V53.3201H50.6875Z" fill="#FAD028"/>
<path d="M92.4408 53.3201V42.4115H88.5233V39.3813H100.427V42.4115H96.5099V53.3201H92.4408ZM107.977 53.5365C105.668 53.5365 103.901 52.9738 102.674 51.8483C101.462 50.7228 100.856 48.9047 100.856 46.394C100.856 44.6625 101.13 43.27 101.679 42.2167C102.227 41.1489 103.028 40.377 104.081 39.9008C105.149 39.4102 106.447 39.1649 107.977 39.1649C109.506 39.1649 110.798 39.4102 111.851 39.9008C112.919 40.377 113.727 41.1489 114.275 42.2167C114.824 43.27 115.098 44.6625 115.098 46.394C115.098 48.9047 114.485 50.7228 113.258 51.8483C112.032 52.9738 110.271 53.5365 107.977 53.5365ZM107.977 50.0735C109.016 50.0735 109.766 49.7849 110.228 49.2077C110.704 48.6161 110.942 47.6782 110.942 46.394C110.942 45.0232 110.704 44.0564 110.228 43.4937C109.766 42.9165 109.016 42.6279 107.977 42.6279C106.938 42.6279 106.181 42.9165 105.704 43.4937C105.243 44.0564 105.012 45.0232 105.012 46.394C105.012 47.6782 105.243 48.6161 105.704 49.2077C106.181 49.7849 106.938 50.0735 107.977 50.0735ZM116.613 53.3201V39.3813H123.864C125.004 39.3813 125.934 39.5906 126.656 40.009C127.392 40.4275 127.94 41.0119 128.301 41.7622C128.662 42.4981 128.842 43.3566 128.842 44.3378C128.842 45.2757 128.604 46.1054 128.128 46.8269C127.666 47.5339 127.046 48.075 126.266 48.4502C126.425 48.58 126.562 48.7388 126.678 48.9263C126.793 49.0995 126.923 49.3448 127.067 49.6622L128.669 53.3201H124.427L122.955 49.9652C122.839 49.7055 122.695 49.5252 122.522 49.4241C122.363 49.3087 122.132 49.251 121.829 49.251H120.682V53.3201H116.613ZM120.682 46.1343H122.825C123.417 46.1343 123.871 45.9828 124.188 45.6797C124.52 45.3623 124.686 44.915 124.686 44.3378C124.686 43.1113 124.109 42.4981 122.955 42.4981H120.682V46.1343ZM134.919 53.5365C133.981 53.5365 133.094 53.4644 132.257 53.3201C131.42 53.1613 130.705 52.9449 130.114 52.6707V49.3159C130.763 49.6189 131.485 49.8642 132.278 50.0518C133.072 50.2394 133.815 50.3332 134.508 50.3332C135.229 50.3332 135.77 50.2755 136.131 50.16C136.506 50.0302 136.694 49.7488 136.694 49.3159C136.694 49.0129 136.585 48.7748 136.369 48.6017C136.167 48.4285 135.842 48.2698 135.395 48.1255C134.962 47.9812 134.392 47.8009 133.685 47.5844C132.747 47.2814 132.004 46.9495 131.456 46.5888C130.907 46.2281 130.511 45.788 130.265 45.2685C130.035 44.749 129.919 44.1142 129.919 43.3638C129.919 41.993 130.402 40.9541 131.369 40.2471C132.35 39.5256 133.801 39.1649 135.72 39.1649C136.484 39.1649 137.271 39.2298 138.079 39.3597C138.901 39.4896 139.565 39.6339 140.07 39.7926V43.169C139.392 42.8949 138.743 42.7001 138.122 42.5846C137.502 42.4692 136.917 42.4115 136.369 42.4115C135.734 42.4115 135.193 42.462 134.746 42.563C134.298 42.664 134.075 42.9237 134.075 43.3422C134.075 43.7029 134.262 43.9699 134.637 44.143C135.027 44.3017 135.712 44.511 136.694 44.7707C137.834 45.0737 138.699 45.4417 139.291 45.8745C139.897 46.3074 140.308 46.8124 140.525 47.3896C140.741 47.9524 140.849 48.5945 140.849 49.3159C140.849 50.5857 140.359 51.6102 139.378 52.3894C138.396 53.1541 136.91 53.5365 134.919 53.5365Z" fill="#FAD028"/>
<path d="M85.7359 44.3462C85.7359 48.8727 82.1373 52.5422 77.6981 52.5422C73.259 52.5422 69.6604 48.8727 69.6604 44.3462C69.6604 39.8196 73.259 36.1501 77.6981 36.1501C82.1373 36.1501 85.7359 39.8196 85.7359 44.3462ZM73.3421 44.3462C73.3421 46.7993 75.2923 48.788 77.6981 48.788C80.1039 48.788 82.0542 46.7993 82.0542 44.3462C82.0542 41.893 80.1039 39.9043 77.6981 39.9043C75.2923 39.9043 73.3421 41.893 73.3421 44.3462Z" fill="#FAD028"/>
<defs>
<clipPath id="clip0_33_86">
<rect width="80" height="78" fill="white" transform="translate(46)"/>
</clipPath>
</defs>
</svg>
